NotoSansPauCinHau-Regular.ufo
<glyph name="u11AC0" format="2">
  <advance width="716"/>
  <unicode hex="11AC0"/>
  <outline>
    <contour>
      <point x="399" y="-10" type="curve" smooth="yes"/>
      <point x="546" y="-10"/>
      <point x="681" y="54"/>
      <point x="681" y="189" type="curve" smooth="yes"/>
      <point x="681" y="268"/>
      <point x="620" y="330"/>
      <point x="536" y="330" type="curve" smooth="yes"/>
      <point x="484" y="330"/>
      <point x="434" y="295"/>
      <point x="412" y="245" type="curve"/>
      <point x="417" y="126" type="line"/>
      <point x="421" y="197"/>
      <point x="478" y="246"/>
      <point x="526" y="246" type="curve" smooth="yes"/>
      <point x="568" y="246"/>
      <point x="591" y="221"/>
      <point x="591" y="186" type="curve" smooth="yes"/>
      <point x="591" y="118"/>
      <point x="536" y="69"/>
      <point x="382" y="69" type="curve" smooth="yes"/>
      <point x="233" y="69"/>
      <point x="151" y="180"/>
      <point x="151" y="357" type="curve" smooth="yes"/>
      <point x="151" y="536"/>
      <point x="245" y="645"/>
      <point x="387" y="645" type="curve" smooth="yes"/>
      <point x="487" y="645"/>
      <point x="551" y="619"/>
      <point x="604" y="581" type="curve"/>
      <point x="646" y="646" type="line"/>
      <point x="588" y="695"/>
      <point x="507" y="724"/>
      <point x="414" y="724" type="curve" smooth="yes"/>
      <point x="183" y="724"/>
      <point x="61" y="574"/>
      <point x="61" y="358" type="curve" smooth="yes"/>
      <point x="61" y="133"/>
      <point x="170" y="-10"/>
    </contour>
    <contour>
      <point x="341" y="19" type="line"/>
      <point x="417" y="19" type="line"/>
      <point x="417" y="177" type="line"/>
      <point x="414" y="224" type="line"/>
      <point x="419" y="282"/>
      <point x="421" y="321"/>
      <point x="421" y="369" type="curve" smooth="yes"/>
      <point x="421" y="688" type="line"/>
      <point x="341" y="688" type="line"/>
    </contour>
  </outline>
</glyph>
<glyph name="u11AC1" format="2">
  <advance width="781"/>
  <unicode hex="11AC1"/>
  <outline>
    <contour>
      <point x="391" y="-10" type="curve" smooth="yes"/>
      <point x="606" y="-10"/>
      <point x="720" y="137"/>
      <point x="720" y="358" type="curve" smooth="yes"/>
      <point x="720" y="580"/>
      <point x="606" y="724"/>
      <point x="392" y="724" type="curve" smooth="yes"/>
      <point x="168" y="724"/>
      <point x="61" y="578"/>
      <point x="61" y="359" type="curve" smooth="yes"/>
      <point x="61" y="138"/>
      <point x="168" y="-10"/>
    </contour>
    <contour>
      <point x="211" y="102" type="line"/>
      <point x="305" y="172"/>
      <point x="358" y="246"/>
      <point x="358" y="359" type="curve" smooth="yes"/>
      <point x="358" y="472"/>
      <point x="305" y="546"/>
      <point x="211" y="616" type="curve"/>
      <point x="165" y="555" type="line"/>
      <point x="230" y="504"/>
      <point x="273" y="444"/>
      <point x="273" y="359" type="curve" smooth="yes"/>
      <point x="273" y="274"/>
      <point x="230" y="214"/>
      <point x="165" y="163" type="curve"/>
    </contour>
    <contour>
      <point x="391" y="68" type="curve" smooth="yes"/>
      <point x="225" y="68"/>
      <point x="151" y="178"/>
      <point x="151" y="358" type="curve" smooth="yes"/>
      <point x="151" y="538"/>
      <point x="225" y="646"/>
      <point x="392" y="646" type="curve" smooth="yes"/>
      <point x="553" y="646"/>
      <point x="625" y="538"/>
      <point x="625" y="358" type="curve" smooth="yes"/>
      <point x="625" y="178"/>
      <point x="553" y="68"/>
    </contour>
  </outline>
</glyph>
<glyph name="u11AC3" format="2">
  <advance width="781"/>
  <unicode hex="11AC3"/>
  <outline>
    <contour>
      <point x="391" y="-10" type="curve" smooth="yes"/>
      <point x="606" y="-10"/>
      <point x="720" y="137"/>
      <point x="720" y="358" type="curve" smooth="yes"/>
      <point x="720" y="580"/>
      <point x="606" y="725"/>
      <point x="392" y="725" type="curve" smooth="yes"/>
      <point x="168" y="725"/>
      <point x="61" y="578"/>
      <point x="61" y="359" type="curve" smooth="yes"/>
      <point x="61" y="138"/>
      <point x="168" y="-10"/>
    </contour>
    <contour>
      <point x="195" y="104" type="line"/>
      <point x="246" y="169"/>
      <point x="306" y="212"/>
      <point x="391" y="212" type="curve" smooth="yes"/>
      <point x="476" y="212"/>
      <point x="536" y="169"/>
      <point x="587" y="104" type="curve"/>
      <point x="645" y="155" type="line"/>
      <point x="578" y="244"/>
      <point x="504" y="297"/>
      <point x="391" y="297" type="curve" smooth="yes"/>
      <point x="278" y="297"/>
      <point x="204" y="244"/>
      <point x="139" y="155" type="curve"/>
    </contour>
    <contour>
      <point x="391" y="68" type="curve" smooth="yes"/>
      <point x="230" y="68"/>
      <point x="156" y="178"/>
      <point x="156" y="358" type="curve" smooth="yes"/>
      <point x="156" y="538"/>
      <point x="230" y="646"/>
      <point x="392" y="646" type="curve" smooth="yes"/>
      <point x="553" y="646"/>
      <point x="625" y="538"/>
      <point x="625" y="358" type="curve" smooth="yes"/>
      <point x="625" y="178"/>
      <point x="553" y="68"/>
    </contour>
  </outline>
</glyph>
<glyph name="u11AC4" format="2">
  <advance width="646"/>
  <unicode hex="11AC4"/>
  <outline>
    <contour>
      <point x="98" y="714" type="line"/>
      <point x="98" y="0" type="line"/>
      <point x="349" y="0" type="line" smooth="yes"/>
      <point x="502" y="0"/>
      <point x="597" y="73"/>
      <point x="597" y="203" type="curve" smooth="yes"/>
      <point x="597" y="314"/>
      <point x="527" y="359"/>
      <point x="437" y="374" type="curve"/>
      <point x="437" y="379" type="line"/>
      <point x="525" y="395"/>
      <point x="573" y="453"/>
      <point x="573" y="537" type="curve" smooth="yes"/>
      <point x="573" y="667"/>
      <point x="480" y="714"/>
      <point x="302" y="714" type="curve" smooth="yes"/>
    </contour>
    <contour>
      <point x="188" y="410" type="line"/>
      <point x="188" y="637" type="line"/>
      <point x="306" y="637" type="line" smooth="yes"/>
      <point x="427" y="637"/>
      <point x="480" y="605"/>
      <point x="480" y="527" type="curve" smooth="yes"/>
      <point x="480" y="450"/>
      <point x="442" y="410"/>
      <point x="320" y="410" type="curve" smooth="yes"/>
    </contour>
    <contour>
      <point x="188" y="335" type="line"/>
      <point x="325" y="335" type="line"/>
      <point x="457" y="335"/>
      <point x="501" y="285"/>
      <point x="501" y="210" type="curve" smooth="yes"/>
      <point x="501" y="130"/>
      <point x="458" y="76"/>
      <point x="332" y="76" type="curve" smooth="yes"/>
      <point x="188" y="76" type="line"/>
    </contour>
  </outline>
</glyph>
<glyph name="u11AC5" format="2">
  <advance width="741"/>
  <unicode hex="11AC5"/>
  <outline>
    <contour>
      <point x="372" y="-10" type="curve" smooth="yes"/>
      <point x="561" y="-10"/>
      <point x="650" y="104"/>
      <point x="650" y="252" type="curve" smooth="yes"/>
      <point x="650" y="714" type="line"/>
      <point x="561" y="714" type="line"/>
      <point x="561" y="252" type="line" smooth="yes"/>
      <point x="561" y="144"/>
      <point x="506" y="68"/>
      <point x="377" y="68" type="curve" smooth="yes"/>
      <point x="252" y="68"/>
      <point x="190" y="135"/>
      <point x="190" y="251" type="curve" smooth="yes"/>
      <point x="190" y="714" type="line"/>
      <point x="100" y="714" type="line"/>
      <point x="100" y="254" type="line" smooth="yes"/>
      <point x="100" y="95"/>
      <point x="194" y="-10"/>
    </contour>
    <contour>
      <point x="10" y="635" type="line"/>
      <point x="294" y="635" type="line"/>
      <point x="294" y="714" type="line"/>
      <point x="10" y="714" type="line"/>
    </contour>
  </outline>
</glyph>
<glyph name="u11AC6" format="2">
  <advance width="744"/>
  <unicode hex="11AC6"/>
  <outline>
    <contour>
      <point x="90" y="-1" type="line"/>
      <point x="180" y="-1" type="line"/>
      <point x="180" y="463" type="line" smooth="yes"/>
      <point x="180" y="572"/>
      <point x="235" y="649"/>
      <point x="365" y="649" type="curve" smooth="yes"/>
      <point x="490" y="649"/>
      <point x="553" y="581"/>
      <point x="553" y="464" type="curve" smooth="yes"/>
      <point x="553" y="-1" type="line"/>
      <point x="643" y="-1" type="line"/>
      <point x="643" y="461" type="line" smooth="yes"/>
      <point x="643" y="621"/>
      <point x="549" y="727"/>
      <point x="370" y="727" type="curve" smooth="yes"/>
      <point x="180" y="727"/>
      <point x="90" y="612"/>
      <point x="90" y="463" type="curve" smooth="yes"/>
    </contour>
    <contour>
      <point x="448" y="-1" type="line"/>
      <point x="734" y="-1" type="line"/>
      <point x="734" y="78" type="line"/>
      <point x="448" y="78" type="line"/>
    </contour>
  </outline>
</glyph>
<glyph name="u11AC7" format="2">
  <advance width="552"/>
  <unicode hex="11AC7"/>
  <outline>
    <contour>
      <point x="75" y="0" type="line"/>
      <point x="482" y="0" type="line"/>
      <point x="482" y="79" type="line"/>
      <point x="165" y="79" type="line"/>
      <point x="165" y="250" type="line"/>
      <point x="217" y="250" type="line" smooth="yes"/>
      <point x="412" y="250"/>
      <point x="512" y="343"/>
      <point x="512" y="487" type="curve" smooth="yes"/>
      <point x="512" y="620"/>
      <point x="431" y="714"/>
      <point x="244" y="714" type="curve" smooth="yes"/>
      <point x="171" y="714"/>
      <point x="107" y="697"/>
      <point x="60" y="676" type="curve"/>
      <point x="88" y="603" type="line"/>
      <point x="135" y="622"/>
      <point x="189" y="635"/>
      <point x="246" y="635" type="curve" smooth="yes"/>
      <point x="362" y="635"/>
      <point x="419" y="575"/>
      <point x="419" y="483" type="curve" smooth="yes"/>
      <point x="419" y="377"/>
      <point x="360" y="329"/>
      <point x="207" y="329" type="curve" smooth="yes"/>
      <point x="75" y="329" type="line"/>
    </contour>
  </outline>
</glyph>
<glyph name="u11AC8" format="2">
  <advance width="693"/>
  <unicode hex="11AC8"/>
  <outline>
    <contour>
      <point x="294" y="-10" type="curve" smooth="yes"/>
      <point x="493" y="-10"/>
      <point x="632" y="115"/>
      <point x="632" y="364" type="curve" smooth="yes"/>
      <point x="632" y="599"/>
      <point x="507" y="724"/>
      <point x="312" y="724" type="curve" smooth="yes"/>
      <point x="207" y="724"/>
      <point x="110" y="683"/>
      <point x="41" y="632" type="curve"/>
      <point x="86" y="565" type="line"/>
      <point x="139" y="602"/>
      <point x="215" y="645"/>
      <point x="312" y="645" type="curve" smooth="yes"/>
      <point x="438" y="645"/>
      <point x="537" y="566"/>
      <point x="537" y="367" type="curve" smooth="yes"/>
      <point x="537" y="161"/>
      <point x="432" y="70"/>
      <point x="301" y="70" type="curve" smooth="yes"/>
      <point x="184" y="70"/>
      <point x="130" y="117"/>
      <point x="130" y="176" type="curve" smooth="yes"/>
      <point x="130" y="230"/>
      <point x="183" y="271"/>
      <point x="270" y="271" type="curve" smooth="yes"/>
      <point x="363" y="271"/>
      <point x="450" y="223"/>
      <point x="508" y="138" type="curve"/>
      <point x="549" y="204" type="line"/>
      <point x="486" y="288"/>
      <point x="391" y="355"/>
      <point x="270" y="355" type="curve" smooth="yes"/>
      <point x="128" y="355"/>
      <point x="40" y="283"/>
      <point x="40" y="177" type="curve" smooth="yes"/>
      <point x="40" y="74"/>
      <point x="133" y="-10"/>
    </contour>
  </outline>
</glyph>
<glyph name="u11AC9" format="2">
  <advance width="551"/>
  <unicode hex="11AC9"/>
  <outline>
    <contour>
      <point x="175" y="361" type="line"/>
      <point x="551" y="662" type="line"/>
      <point x="497" y="725" type="line"/>
      <point x="289" y="553" type="line" smooth="yes"/>
      <point x="225" y="500"/>
      <point x="200" y="476"/>
      <point x="175" y="451" type="curve"/>
    </contour>
    <contour>
      <point x="98" y="0" type="line"/>
      <point x="188" y="0" type="line"/>
      <point x="188" y="714" type="line"/>
      <point x="98" y="714" type="line"/>
    </contour>
  </outline>
</glyph>
<glyph name="u11ACA" format="2">
  <advance width="852"/>
  <unicode hex="11ACA"/>
  <outline>
    <contour>
      <point x="183" y="-10" type="curve" smooth="yes"/>
      <point x="377" y="-10"/>
      <point x="495" y="128"/>
      <point x="495" y="359" type="curve" smooth="yes"/>
      <point x="495" y="597"/>
      <point x="393" y="724"/>
      <point x="202" y="724" type="curve" smooth="yes"/>
      <point x="141" y="724"/>
      <point x="84" y="712"/>
      <point x="30" y="689" type="curve"/>
      <point x="52" y="612" type="line"/>
      <point x="101" y="634"/>
      <point x="148" y="645"/>
      <point x="191" y="645" type="curve" smooth="yes"/>
      <point x="327" y="645"/>
      <point x="400" y="545"/>
      <point x="400" y="360" type="curve" smooth="yes"/>
      <point x="400" y="176"/>
      <point x="321" y="69"/>
      <point x="188" y="69" type="curve" smooth="yes"/>
      <point x="136" y="69"/>
      <point x="83" y="83"/>
      <point x="30" y="110" type="curve"/>
      <point x="30" y="22" type="line"/>
      <point x="74" y="1"/>
      <point x="125" y="-10"/>
    </contour>
    <contour>
      <point x="746" y="0" type="line"/>
      <point x="852" y="0" type="line"/>
      <point x="544" y="365" type="line"/>
      <point x="841" y="714" type="line"/>
      <point x="736" y="714" type="line"/>
      <point x="458" y="389" type="line"/>
      <point x="483" y="305" type="line"/>
    </contour>
  </outline>
</glyph>
<glyph name="u11ACB" format="2">
  <advance width="712"/>
  <unicode hex="11ACB"/>
  <outline>
    <contour>
      <point x="384" y="-10" type="curve" smooth="yes"/>
      <point x="510" y="-10"/>
      <point x="619" y="54"/>
      <point x="683" y="126" type="curve"/>
      <point x="636" y="184" type="line"/>
      <point x="575" y="122"/>
      <point x="494" y="70"/>
      <point x="388" y="70" type="curve" smooth="yes"/>
      <point x="258" y="70"/>
      <point x="156" y="180"/>
      <point x="156" y="357" type="curve" smooth="yes"/>
      <point x="156" y="536"/>
      <point x="256" y="645"/>
      <point x="389" y="645" type="curve" smooth="yes"/>
      <point x="472" y="645"/>
      <point x="536" y="593"/>
      <point x="565" y="503" type="curve"/>
      <point x="587" y="539" type="line"/>
      <point x="94" y="320" type="line"/>
      <point x="115" y="242" type="line"/>
      <point x="671" y="492" type="line"/>
      <point x="664" y="518"/>
      <point x="651" y="550"/>
      <point x="636" y="578" type="curve" smooth="yes"/>
      <point x="593" y="659"/>
      <point x="505" y="724"/>
      <point x="393" y="724" type="curve" smooth="yes"/>
      <point x="193" y="724"/>
      <point x="61" y="574"/>
      <point x="61" y="358" type="curve" smooth="yes"/>
      <point x="61" y="133"/>
      <point x="191" y="-10"/>
    </contour>
  </outline>
</glyph>
<glyph name="u11ACC" format="2">
  <advance width="542"/>
  <unicode hex="11ACC"/>
  <outline>
    <contour>
      <point x="321" y="-10" type="curve" smooth="yes"/>
      <point x="395" y="-10"/>
      <point x="469" y="5"/>
      <point x="520" y="29" type="curve"/>
      <point x="520" y="107" type="line"/>
      <point x="455" y="78"/>
      <point x="390" y="64"/>
      <point x="326" y="64" type="curve" smooth="yes"/>
      <point x="217" y="64"/>
      <point x="150" y="110"/>
      <point x="150" y="194" type="curve" smooth="yes"/>
      <point x="150" y="290"/>
      <point x="213" y="332"/>
      <point x="348" y="332" type="curve" smooth="yes"/>
      <point x="416" y="332" type="line"/>
      <point x="416" y="407" type="line"/>
      <point x="375" y="407" type="line" smooth="yes"/>
      <point x="238" y="407"/>
      <point x="175" y="447"/>
      <point x="175" y="531" type="curve" smooth="yes"/>
      <point x="175" y="609"/>
      <point x="227" y="650"/>
      <point x="322" y="650" type="curve" smooth="yes"/>
      <point x="380" y="650"/>
      <point x="434" y="633"/>
      <point x="486" y="599" type="curve"/>
      <point x="522" y="665" type="line"/>
      <point x="467" y="702"/>
      <point x="393" y="724"/>
      <point x="312" y="724" type="curve" smooth="yes"/>
      <point x="162" y="724"/>
      <point x="82" y="662"/>
      <point x="82" y="547" type="curve" smooth="yes"/>
      <point x="82" y="456"/>
      <point x="138" y="394"/>
      <point x="234" y="378" type="curve"/>
      <point x="234" y="374" type="line"/>
      <point x="118" y="357"/>
      <point x="56" y="295"/>
      <point x="56" y="201" type="curve" smooth="yes"/>
      <point x="56" y="75"/>
      <point x="161" y="-10"/>
    </contour>
  </outline>
</glyph>
<glyph name="u11ACE" format="2">
  <advance width="505"/>
  <unicode hex="11ACE"/>
  <outline>
    <contour>
      <point x="98" y="0" type="line"/>
      <point x="500" y="0" type="line"/>
      <point x="500" y="80" type="line"/>
      <point x="188" y="80" type="line"/>
      <point x="188" y="714" type="line"/>
      <point x="98" y="714" type="line"/>
    </contour>
  </outline>
</glyph>
<glyph name="u11ACF" format="2">
  <advance width="695"/>
  <unicode hex="11ACF"/>
  <outline>
    <contour>
      <point x="399" y="-10" type="curve" smooth="yes"/>
      <point x="536" y="-10"/>
      <point x="655" y="48"/>
      <point x="655" y="170" type="curve" smooth="yes"/>
      <point x="655" y="253"/>
      <point x="590" y="310"/>
      <point x="495" y="310" type="curve" smooth="yes"/>
      <point x="409" y="310"/>
      <point x="348" y="261"/>
      <point x="323" y="179" type="curve" smooth="yes"/>
      <point x="315" y="153"/>
      <point x="312" y="119"/>
      <point x="312" y="88" type="curve" smooth="yes"/>
      <point x="312" y="77"/>
      <point x="312" y="66"/>
      <point x="313" y="56" type="curve"/>
      <point x="384" y="56" type="line"/>
      <point x="384" y="181"/>
      <point x="442" y="226"/>
      <point x="500" y="226" type="curve" smooth="yes"/>
      <point x="545" y="226"/>
      <point x="570" y="202"/>
      <point x="570" y="163" type="curve" smooth="yes"/>
      <point x="570" y="111"/>
      <point x="511" y="69"/>
      <point x="402" y="69" type="curve" smooth="yes"/>
      <point x="233" y="69"/>
      <point x="151" y="180"/>
      <point x="151" y="357" type="curve" smooth="yes"/>
      <point x="151" y="536"/>
      <point x="245" y="645"/>
      <point x="403" y="645" type="curve" smooth="yes"/>
      <point x="506" y="645"/>
      <point x="565" y="606"/>
      <point x="565" y="555" type="curve" smooth="yes"/>
      <point x="565" y="516"/>
      <point x="540" y="488"/>
      <point x="495" y="488" type="curve" smooth="yes"/>
      <point x="437" y="488"/>
      <point x="379" y="533"/>
      <point x="379" y="658" type="curve"/>
      <point x="308" y="658" type="line"/>
      <point x="307" y="648"/>
      <point x="306" y="636"/>
      <point x="306" y="623" type="curve" smooth="yes"/>
      <point x="306" y="597"/>
      <point x="309" y="568"/>
      <point x="315" y="545" type="curve" smooth="yes"/>
      <point x="338" y="457"/>
      <point x="400" y="404"/>
      <point x="490" y="404" type="curve" smooth="yes"/>
      <point x="585" y="404"/>
      <point x="650" y="467"/>
      <point x="650" y="544" type="curve" smooth="yes"/>
      <point x="650" y="666"/>
      <point x="540" y="724"/>
      <point x="402" y="724" type="curve" smooth="yes"/>
      <point x="183" y="724"/>
      <point x="61" y="574"/>
      <point x="61" y="358" type="curve" smooth="yes"/>
      <point x="61" y="133"/>
      <point x="170" y="-10"/>
    </contour>
  </outline>
</glyph>
<glyph name="u11AD0" format="2">
  <advance width="677"/>
  <unicode hex="11AD0"/>
  <outline>
    <contour>
      <point x="399" y="-10" type="curve" smooth="yes"/>
      <point x="498" y="-10"/>
      <point x="587" y="28"/>
      <point x="646" y="66" type="curve"/>
      <point x="612" y="131" type="line"/>
      <point x="557" y="98"/>
      <point x="484" y="69"/>
      <point x="398" y="69" type="curve" smooth="yes"/>
      <point x="233" y="69"/>
      <point x="151" y="180"/>
      <point x="151" y="357" type="curve" smooth="yes"/>
      <point x="151" y="536"/>
      <point x="245" y="645"/>
      <point x="399" y="645" type="curve" smooth="yes"/>
      <point x="497" y="645"/>
      <point x="551" y="619"/>
      <point x="604" y="581" type="curve"/>
      <point x="646" y="646" type="line"/>
      <point x="588" y="695"/>
      <point x="507" y="724"/>
      <point x="414" y="724" type="curve" smooth="yes"/>
      <point x="183" y="724"/>
      <point x="61" y="574"/>
      <point x="61" y="358" type="curve" smooth="yes"/>
      <point x="61" y="133"/>
      <point x="170" y="-10"/>
    </contour>
    <contour>
      <point x="358" y="19" type="line"/>
      <point x="438" y="19" type="line"/>
      <point x="438" y="688" type="line"/>
      <point x="358" y="688" type="line"/>
    </contour>
  </outline>
</glyph>
<glyph name="u11AD2" format="2">
  <advance width="578"/>
  <unicode hex="11AD2"/>
  <outline>
    <contour>
      <point x="90" y="0" type="line"/>
      <point x="180" y="0" type="line"/>
      <point x="180" y="244" type="line"/>
      <point x="252" y="244" type="line" smooth="yes"/>
      <point x="456" y="244"/>
      <point x="527" y="369"/>
      <point x="527" y="487" type="curve" smooth="yes"/>
      <point x="527" y="620"/>
      <point x="446" y="725"/>
      <point x="269" y="725" type="curve" smooth="yes"/>
      <point x="181" y="725"/>
      <point x="107" y="702"/>
      <point x="60" y="681" type="curve"/>
      <point x="88" y="608" type="line"/>
      <point x="135" y="627"/>
      <point x="199" y="646"/>
      <point x="261" y="646" type="curve" smooth="yes"/>
      <point x="377" y="646"/>
      <point x="434" y="575"/>
      <point x="434" y="483" type="curve" smooth="yes"/>
      <point x="434" y="378"/>
      <point x="368" y="323"/>
      <point x="242" y="323" type="curve" smooth="yes"/>
      <point x="90" y="323" type="line"/>
    </contour>
  </outline>
</glyph>
<glyph name="u11AD3" format="2">
  <advance width="687"/>
  <unicode hex="11AD3"/>
  <outline>
    <contour>
      <point x="517" y="0" type="line"/>
      <point x="607" y="0" type="line"/>
      <point x="607" y="312" type="line" smooth="yes"/>
      <point x="607" y="452"/>
      <point x="518" y="536"/>
      <point x="379" y="536" type="curve" smooth="yes"/>
      <point x="294" y="536"/>
      <point x="216" y="491"/>
      <point x="170" y="433" type="curve"/>
      <point x="184" y="359" type="line"/>
      <point x="230" y="413"/>
      <point x="295" y="457"/>
      <point x="379" y="457" type="curve" smooth="yes"/>
      <point x="459" y="457"/>
      <point x="517" y="414"/>
      <point x="517" y="312" type="curve" smooth="yes"/>
    </contour>
    <contour>
      <point x="98" y="0" type="line"/>
      <point x="188" y="0" type="line"/>
      <point x="188" y="714" type="line"/>
      <point x="98" y="714" type="line"/>
    </contour>
  </outline>
</glyph>
<glyph name="u11AD4" format="2">
  <advance width="777"/>
  <unicode hex="11AD4"/>
  <outline>
    <contour>
      <point x="105" y="0" type="line"/>
      <point x="195" y="0" type="line"/>
      <point x="195" y="333" type="line"/>
      <point x="467" y="333" type="line"/>
      <point x="467" y="0" type="line"/>
      <point x="557" y="0" type="line"/>
      <point x="557" y="544" type="line" smooth="yes"/>
      <point x="557" y="615"/>
      <point x="583" y="643"/>
      <point x="616" y="643" type="curve" smooth="yes"/>
      <point x="647" y="643"/>
      <point x="677" y="620"/>
      <point x="677" y="557" type="curve" smooth="yes"/>
      <point x="677" y="462"/>
      <point x="619" y="410"/>
      <point x="547" y="410" type="curve"/>
      <point x="547" y="336" type="line"/>
      <point x="634" y="336"/>
      <point x="767" y="388"/>
      <point x="767" y="551" type="curve" smooth="yes"/>
      <point x="767" y="667"/>
      <point x="706" y="728"/>
      <point x="616" y="728" type="curve" smooth="yes"/>
      <point x="526" y="728"/>
      <point x="467" y="669"/>
      <point x="467" y="551" type="curve" smooth="yes"/>
      <point x="467" y="412" type="line"/>
      <point x="195" y="412" type="line"/>
      <point x="195" y="714" type="line"/>
      <point x="105" y="714" type="line"/>
    </contour>
    <contour>
      <point x="15" y="635" type="line"/>
      <point x="169" y="635" type="line"/>
      <point x="169" y="714" type="line"/>
      <point x="15" y="714" type="line"/>
    </contour>
  </outline>
</glyph>
<glyph name="u11AD5" format="2">
  <advance width="614"/>
  <unicode hex="11AD5"/>
  <outline>
    <contour>
      <point x="307" y="-10" type="curve" smooth="yes"/>
      <point x="418" y="-10"/>
      <point x="486" y="70"/>
      <point x="486" y="200" type="curve" smooth="yes"/>
      <point x="486" y="374"/>
      <point x="294" y="583"/>
      <point x="53" y="728" type="curve"/>
      <point x="5" y="648" type="line"/>
      <point x="226" y="526"/>
      <point x="396" y="344"/>
      <point x="396" y="200" type="curve" smooth="yes"/>
      <point x="396" y="111"/>
      <point x="357" y="69"/>
      <point x="307" y="69" type="curve" smooth="yes"/>
      <point x="257" y="69"/>
      <point x="218" y="111"/>
      <point x="218" y="200" type="curve" smooth="yes"/>
      <point x="218" y="344"/>
      <point x="388" y="526"/>
      <point x="609" y="648" type="curve"/>
      <point x="561" y="728" type="line"/>
      <point x="320" y="583"/>
      <point x="128" y="374"/>
      <point x="128" y="200" type="curve" smooth="yes"/>
      <point x="128" y="70"/>
      <point x="196" y="-10"/>
    </contour>
  </outline>
</glyph>
<glyph name="u11AD6" format="2">
  <advance width="542"/>
  <unicode hex="11AD6"/>
  <outline>
    <contour>
      <point x="295" y="-10" type="curve" smooth="yes"/>
      <point x="379" y="-10"/>
      <point x="445" y="1"/>
      <point x="491" y="24" type="curve"/>
      <point x="491" y="110" type="line"/>
      <point x="431" y="84"/>
      <point x="354" y="68"/>
      <point x="291" y="68" type="curve" smooth="yes"/>
      <point x="184" y="68"/>
      <point x="130" y="111"/>
      <point x="130" y="183" type="curve" smooth="yes"/>
      <point x="130" y="263"/>
      <point x="188" y="290"/>
      <point x="298" y="330" type="curve" smooth="yes"/>
      <point x="430" y="378"/>
      <point x="502" y="438"/>
      <point x="502" y="542" type="curve" smooth="yes"/>
      <point x="502" y="653"/>
      <point x="411" y="724"/>
      <point x="274" y="724" type="curve" smooth="yes"/>
      <point x="203" y="724"/>
      <point x="137" y="711"/>
      <point x="77" y="684" type="curve"/>
      <point x="105" y="607" type="line"/>
      <point x="166" y="632"/>
      <point x="223" y="645"/>
      <point x="276" y="645" type="curve" smooth="yes"/>
      <point x="360" y="645"/>
      <point x="411" y="607"/>
      <point x="411" y="541" type="curve" smooth="yes"/>
      <point x="411" y="462"/>
      <point x="338" y="435"/>
      <point x="235" y="397" type="curve" smooth="yes"/>
      <point x="114" y="352"/>
      <point x="40" y="306"/>
      <point x="40" y="191" type="curve" smooth="yes"/>
      <point x="40" y="66"/>
      <point x="129" y="-10"/>
    </contour>
  </outline>
</glyph>
<glyph name="u11AD7" format="2">
  <advance width="587"/>
  <unicode hex="11AD7"/>
  <outline>
    <contour>
      <point x="410" y="-9" type="line"/>
      <point x="500" y="-9" type="line"/>
      <point x="500" y="457" type="line" smooth="yes"/>
      <point x="500" y="629"/>
      <point x="420" y="715"/>
      <point x="261" y="715" type="curve" smooth="yes"/>
      <point x="93" y="715"/>
      <point x="10" y="617"/>
      <point x="10" y="434" type="curve"/>
      <point x="99" y="434" type="line"/>
      <point x="99" y="569"/>
      <point x="151" y="637"/>
      <point x="256" y="637" type="curve" smooth="yes"/>
      <point x="362" y="637"/>
      <point x="410" y="579"/>
      <point x="410" y="439" type="curve" smooth="yes"/>
    </contour>
  </outline>
</glyph>
<glyph name="u11AD8" format="2">
  <advance width="638"/>
  <unicode hex="11AD8"/>
  <outline>
    <contour>
      <point x="0" y="0" type="line"/>
      <point x="91" y="0" type="line"/>
      <point x="287" y="517" type="line" smooth="yes"/>
      <point x="296" y="540"/>
      <point x="308" y="583"/>
      <point x="318" y="624" type="curve"/>
      <point x="325" y="599"/>
      <point x="346" y="533"/>
      <point x="352" y="517" type="curve" smooth="yes"/>
      <point x="545" y="0" type="line"/>
      <point x="638" y="0" type="line"/>
      <point x="360" y="717" type="line"/>
      <point x="279" y="717" type="line"/>
    </contour>
    <contour>
      <point x="160" y="203" type="line"/>
      <point x="475" y="203" type="line"/>
      <point x="448" y="283" type="line"/>
      <point x="190" y="283" type="line"/>
    </contour>
  </outline>
</glyph>
<glyph name="u11AD9" format="2">
  <advance width="607"/>
  <unicode hex="11AD9"/>
  <outline>
    <contour>
      <point x="294" y="-10" type="curve" smooth="yes"/>
      <point x="375" y="-10"/>
      <point x="446" y="11"/>
      <point x="517" y="47" type="curve"/>
      <point x="455" y="109" type="line"/>
      <point x="418" y="85"/>
      <point x="360" y="70"/>
      <point x="301" y="70" type="curve" smooth="yes"/>
      <point x="182" y="70"/>
      <point x="130" y="153"/>
      <point x="130" y="237" type="curve" smooth="yes"/>
      <point x="130" y="319"/>
      <point x="191" y="393"/>
      <point x="297" y="393" type="curve" smooth="yes"/>
      <point x="366" y="393"/>
      <point x="424" y="368"/>
      <point x="480" y="305" type="curve"/>
      <point x="480" y="411" type="line"/>
      <point x="427" y="452"/>
      <point x="379" y="477"/>
      <point x="297" y="477" type="curve" smooth="yes"/>
      <point x="130" y="477"/>
      <point x="40" y="359"/>
      <point x="40" y="238" type="curve" smooth="yes"/>
      <point x="40" y="104"/>
      <point x="124" y="-10"/>
    </contour>
    <contour>
      <point x="427" y="47" type="line"/>
      <point x="517" y="47" type="line"/>
      <point x="517" y="714" type="line"/>
      <point x="427" y="714" type="line"/>
    </contour>
  </outline>
</glyph>
<glyph name="u11ADA" format="2">
  <advance width="545"/>
  <unicode hex="11ADA"/>
  <outline>
    <contour>
      <point x="310" y="-9" type="line"/>
      <point x="400" y="-9" type="line"/>
      <point x="400" y="477" type="line" smooth="yes"/>
      <point x="400" y="648"/>
      <point x="332" y="715"/>
      <point x="210" y="715" type="curve" smooth="yes"/>
      <point x="72" y="715"/>
      <point x="10" y="617"/>
      <point x="10" y="484" type="curve"/>
      <point x="99" y="484" type="line"/>
      <point x="99" y="569"/>
      <point x="130" y="637"/>
      <point x="205" y="637" type="curve" smooth="yes"/>
      <point x="281" y="637"/>
      <point x="310" y="589"/>
      <point x="310" y="459" type="curve" smooth="yes"/>
    </contour>
    <contour>
      <point x="134" y="257" type="line"/>
      <point x="535" y="257" type="line"/>
      <point x="535" y="336" type="line"/>
      <point x="134" y="336" type="line"/>
    </contour>
  </outline>
</glyph>
<glyph name="u11ADB" format="2">
  <advance width="638"/>
  <unicode hex="11ADB"/>
  <outline>
    <contour>
      <point x="0" y="0" type="line"/>
      <point x="91" y="0" type="line"/>
      <point x="273" y="481" type="line" smooth="yes"/>
      <point x="299" y="549"/>
      <point x="306" y="575"/>
      <point x="319" y="624" type="curve"/>
      <point x="333" y="575"/>
      <point x="343" y="542"/>
      <point x="366" y="481" type="curve" smooth="yes"/>
      <point x="545" y="0" type="line"/>
      <point x="638" y="0" type="line"/>
      <point x="360" y="717" type="line"/>
      <point x="279" y="717" type="line"/>
    </contour>
  </outline>
</glyph>
<glyph name="u11ADC" format="2">
  <advance width="768"/>
  <unicode hex="11ADC"/>
  <outline>
    <contour>
      <point x="385" y="-10" type="curve" smooth="yes"/>
      <point x="595" y="-10"/>
      <point x="708" y="137"/>
      <point x="708" y="409" type="curve" smooth="yes"/>
      <point x="708" y="624"/>
      <point x="637" y="724"/>
      <point x="525" y="724" type="curve" smooth="yes"/>
      <point x="432" y="724"/>
      <point x="371" y="652"/>
      <point x="371" y="529" type="curve" smooth="yes"/>
      <point x="371" y="372"/>
      <point x="485" y="275"/>
      <point x="629" y="275" type="curve"/>
      <point x="642" y="346" type="line"/>
      <point x="517" y="346"/>
      <point x="456" y="431"/>
      <point x="456" y="529" type="curve" smooth="yes"/>
      <point x="456" y="604"/>
      <point x="485" y="639"/>
      <point x="525" y="639" type="curve" smooth="yes"/>
      <point x="576" y="639"/>
      <point x="618" y="580"/>
      <point x="618" y="412" type="curve" smooth="yes"/>
      <point x="618" y="178"/>
      <point x="542" y="68"/>
      <point x="385" y="68" type="curve" smooth="yes"/>
      <point x="229" y="68"/>
      <point x="150" y="178"/>
      <point x="150" y="358" type="curve" smooth="yes"/>
      <point x="150" y="482"/>
      <point x="185" y="610"/>
      <point x="223" y="714" type="curve"/>
      <point x="128" y="714" type="line"/>
      <point x="93" y="620"/>
      <point x="60" y="490"/>
      <point x="60" y="359" type="curve" smooth="yes"/>
      <point x="60" y="138"/>
      <point x="167" y="-10"/>
    </contour>
  </outline>
</glyph>
<glyph name="u11ADE" format="2">
  <advance width="770"/>
  <unicode hex="11ADE"/>
  <outline>
    <contour>
      <point x="98" y="0" type="line"/>
      <point x="188" y="0" type="line"/>
      <point x="188" y="333" type="line"/>
      <point x="460" y="333" type="line"/>
      <point x="460" y="0" type="line"/>
      <point x="550" y="0" type="line"/>
      <point x="550" y="544" type="line" smooth="yes"/>
      <point x="550" y="615"/>
      <point x="576" y="643"/>
      <point x="609" y="643" type="curve" smooth="yes"/>
      <point x="640" y="643"/>
      <point x="670" y="620"/>
      <point x="670" y="557" type="curve" smooth="yes"/>
      <point x="670" y="462"/>
      <point x="612" y="410"/>
      <point x="540" y="410" type="curve"/>
      <point x="540" y="336" type="line"/>
      <point x="627" y="336"/>
      <point x="760" y="388"/>
      <point x="760" y="551" type="curve" smooth="yes"/>
      <point x="760" y="667"/>
      <point x="699" y="728"/>
      <point x="609" y="728" type="curve" smooth="yes"/>
      <point x="519" y="728"/>
      <point x="460" y="669"/>
      <point x="460" y="551" type="curve" smooth="yes"/>
      <point x="460" y="412" type="line"/>
      <point x="188" y="412" type="line"/>
      <point x="188" y="714" type="line"/>
      <point x="98" y="714" type="line"/>
    </contour>
  </outline>
</glyph>
<glyph name="u11ADF" format="2">
  <advance width="638"/>
  <unicode hex="11ADF"/>
  <outline>
    <contour>
      <point x="638" y="717" type="line"/>
      <point x="547" y="717" type="line"/>
      <point x="365" y="236" type="line" smooth="yes"/>
      <point x="339" y="168"/>
      <point x="332" y="142"/>
      <point x="319" y="93" type="curve"/>
      <point x="305" y="142"/>
      <point x="295" y="175"/>
      <point x="272" y="236" type="curve" smooth="yes"/>
      <point x="93" y="717" type="line"/>
      <point x="0" y="717" type="line"/>
      <point x="278" y="0" type="line"/>
      <point x="359" y="0" type="line"/>
    </contour>
  </outline>
</glyph>
<glyph name="u11AE0" format="2">
  <advance width="628"/>
  <unicode hex="11AE0"/>
  <outline>
    <contour>
      <point x="368" y="-10" type="curve" smooth="yes"/>
      <point x="521" y="-10"/>
      <point x="603" y="50"/>
      <point x="603" y="146" type="curve" smooth="yes"/>
      <point x="603" y="210"/>
      <point x="569" y="256"/>
      <point x="484" y="281" type="curve"/>
      <point x="484" y="286" type="line"/>
      <point x="546" y="307"/>
      <point x="584" y="343"/>
      <point x="584" y="404" type="curve" smooth="yes"/>
      <point x="584" y="492"/>
      <point x="512" y="546"/>
      <point x="398" y="546" type="curve" smooth="yes"/>
      <point x="345" y="546"/>
      <point x="289" y="532"/>
      <point x="258" y="516" type="curve"/>
      <point x="281" y="450" type="line"/>
      <point x="309" y="462"/>
      <point x="348" y="473"/>
      <point x="399" y="473" type="curve" smooth="yes"/>
      <point x="459" y="473"/>
      <point x="500" y="448"/>
      <point x="500" y="397" type="curve" smooth="yes"/>
      <point x="500" y="342"/>
      <point x="449" y="315"/>
      <point x="347" y="315" type="curve" smooth="yes"/>
      <point x="321" y="315" type="line"/>
      <point x="321" y="243" type="line"/>
      <point x="364" y="243" type="line" smooth="yes"/>
      <point x="465" y="243"/>
      <point x="515" y="212"/>
      <point x="515" y="151" type="curve" smooth="yes"/>
      <point x="515" y="93"/>
      <point x="466" y="62"/>
      <point x="373" y="62" type="curve" smooth="yes"/>
      <point x="224" y="62"/>
      <point x="151" y="126"/>
      <point x="151" y="341" type="curve" smooth="yes"/>
      <point x="151" y="425" type="line" smooth="yes"/>
      <point x="151" y="600"/>
      <point x="231" y="653"/>
      <point x="384" y="653" type="curve" smooth="yes"/>
      <point x="416" y="653"/>
      <point x="441" y="650"/>
      <point x="465" y="645" type="curve"/>
      <point x="490" y="713" type="line"/>
      <point x="461" y="721"/>
      <point x="424" y="725"/>
      <point x="385" y="725" type="curve" smooth="yes"/>
      <point x="203" y="725"/>
      <point x="61" y="652"/>
      <point x="61" y="425" type="curve" smooth="yes"/>
      <point x="61" y="332" type="line" smooth="yes"/>
      <point x="61" y="77"/>
      <point x="183" y="-10"/>
    </contour>
  </outline>
</glyph>
<glyph name="u11AE1" format="2">
  <advance width="731"/>
  <unicode hex="11AE1"/>
  <outline>
    <contour>
      <point x="90" y="-10" type="line"/>
      <point x="179" y="-10" type="line"/>
      <point x="179" y="452" type="line" smooth="yes"/>
      <point x="179" y="560"/>
      <point x="234" y="636"/>
      <point x="363" y="636" type="curve" smooth="yes"/>
      <point x="488" y="636"/>
      <point x="550" y="569"/>
      <point x="550" y="453" type="curve" smooth="yes"/>
      <point x="550" y="-10" type="line"/>
      <point x="640" y="-10" type="line"/>
      <point x="640" y="450" type="line" smooth="yes"/>
      <point x="640" y="609"/>
      <point x="546" y="714"/>
      <point x="368" y="714" type="curve" smooth="yes"/>
      <point x="179" y="714"/>
      <point x="90" y="600"/>
      <point x="90" y="452" type="curve" smooth="yes"/>
    </contour>
  </outline>
</glyph>
<glyph name="u11AE2" format="2">
  <advance width="606"/>
  <unicode hex="11AE2"/>
  <outline>
    <contour>
      <point x="98" y="0" type="line"/>
      <point x="188" y="0" type="line"/>
      <point x="188" y="635" type="line"/>
      <point x="279" y="635" type="line" smooth="yes"/>
      <point x="405" y="635"/>
      <point x="462" y="575"/>
      <point x="462" y="483" type="curve" smooth="yes"/>
      <point x="462" y="378"/>
      <point x="396" y="323"/>
      <point x="260" y="323" type="curve" smooth="yes"/>
      <point x="172" y="323" type="line"/>
      <point x="172" y="244" type="line"/>
      <point x="270" y="244" type="line" smooth="yes"/>
      <point x="484" y="244"/>
      <point x="555" y="369"/>
      <point x="555" y="487" type="curve" smooth="yes"/>
      <point x="555" y="620"/>
      <point x="474" y="714"/>
      <point x="287" y="714" type="curve" smooth="yes"/>
      <point x="98" y="714" type="line"/>
    </contour>
  </outline>
</glyph>
<glyph name="u11AE3" format="2">
  <advance width="573"/>
  <unicode hex="11AE3"/>
  <outline>
    <contour>
      <point x="234" y="187" type="curve" smooth="yes"/>
      <point x="423" y="187"/>
      <point x="543" y="322"/>
      <point x="543" y="462" type="curve" smooth="yes"/>
      <point x="543" y="616"/>
      <point x="435" y="725"/>
      <point x="281" y="725" type="curve" smooth="yes"/>
      <point x="181" y="725"/>
      <point x="97" y="696"/>
      <point x="24" y="657" type="curve"/>
      <point x="64" y="587" type="line"/>
      <point x="132" y="624"/>
      <point x="198" y="646"/>
      <point x="271" y="646" type="curve" smooth="yes"/>
      <point x="366" y="646"/>
      <point x="448" y="583"/>
      <point x="448" y="462" type="curve" smooth="yes"/>
      <point x="448" y="350"/>
      <point x="372" y="266"/>
      <point x="224" y="266" type="curve" smooth="yes"/>
      <point x="159" y="266"/>
      <point x="134" y="297"/>
      <point x="134" y="327" type="curve" smooth="yes"/>
      <point x="134" y="357"/>
      <point x="158" y="385"/>
      <point x="212" y="385" type="curve" smooth="yes"/>
      <point x="272" y="385"/>
      <point x="320" y="340"/>
      <point x="333" y="254" type="curve"/>
      <point x="412" y="292" type="line"/>
      <point x="392" y="382"/>
      <point x="330" y="464"/>
      <point x="212" y="464" type="curve" smooth="yes"/>
      <point x="106" y="464"/>
      <point x="44" y="396"/>
      <point x="44" y="327" type="curve" smooth="yes"/>
      <point x="44" y="256"/>
      <point x="104" y="187"/>
    </contour>
    <contour>
      <point x="342" y="0" type="curve"/>
      <point x="432" y="0" type="line"/>
      <point x="432" y="91"/>
      <point x="430" y="214"/>
      <point x="415" y="272" type="curve"/>
      <point x="333" y="234" type="line"/>
      <point x="341" y="174"/>
      <point x="342" y="89"/>
    </contour>
  </outline>
</glyph>
<glyph name="u11AE5" format="2">
  <advance width="260"/>
  <unicode hex="11AE5"/>
  <outline>
    <contour>
      <point x="85" y="0" type="line"/>
      <point x="175" y="0" type="line"/>
      <point x="175" y="714" type="line"/>
      <point x="85" y="714" type="line"/>
    </contour>
  </outline>
</glyph>
<glyph name="u11AEB" format="2">
  <advance width="375"/>
  <unicode hex="11AEB"/>
  <outline>
    <contour>
      <point x="85" y="0" type="line"/>
      <point x="175" y="0" type="line"/>
      <point x="175" y="393" type="line" smooth="yes"/>
      <point x="175" y="502"/>
      <point x="168" y="579"/>
      <point x="161" y="628" type="curve"/>
      <point x="165" y="630" type="line"/>
      <point x="192" y="585"/>
      <point x="216" y="551"/>
      <point x="267" y="489" type="curve" smooth="yes"/>
      <point x="312" y="434" type="line"/>
      <point x="375" y="488" type="line"/>
      <point x="198" y="714" type="line"/>
      <point x="85" y="714" type="line"/>
    </contour>
  </outline>
</glyph>
<glyph name="u11AEC" format="2">
  <advance width="375"/>
  <unicode hex="11AEC"/>
  <outline>
    <contour>
      <point x="311" y="170" type="curve" smooth="yes"/>
      <point x="343" y="170"/>
      <point x="370" y="188"/>
      <point x="370" y="231" type="curve" smooth="yes"/>
      <point x="370" y="275"/>
      <point x="343" y="291"/>
      <point x="311" y="291" type="curve" smooth="yes"/>
      <point x="279" y="291"/>
      <point x="254" y="275"/>
      <point x="254" y="231" type="curve" smooth="yes"/>
      <point x="254" y="188"/>
      <point x="279" y="170"/>
    </contour>
    <component base="u11AEB"/>
  </outline>
</glyph>
<glyph name="u11AEE" format="2">
  <advance width="708"/>
  <unicode hex="11AEE"/>
  <outline>
    <contour>
      <point x="651" y="170" type="curve" smooth="yes"/>
      <point x="683" y="170"/>
      <point x="710" y="188"/>
      <point x="710" y="231" type="curve" smooth="yes"/>
      <point x="710" y="275"/>
      <point x="683" y="291"/>
      <point x="651" y="291" type="curve" smooth="yes"/>
      <point x="619" y="291"/>
      <point x="594" y="275"/>
      <point x="594" y="231" type="curve" smooth="yes"/>
      <point x="594" y="188"/>
      <point x="619" y="170"/>
    </contour>
    <component base="u11AED"/>
  </outline>
</glyph>
<glyph name="u11AEF" format="2">
  <advance width="316"/>
  <unicode hex="11AEF"/>
  <outline>
    <contour>
      <point x="157" y="296" type="curve" smooth="yes"/>
      <point x="189" y="296"/>
      <point x="216" y="314"/>
      <point x="216" y="357" type="curve" smooth="yes"/>
      <point x="216" y="401"/>
      <point x="189" y="417"/>
      <point x="157" y="417" type="curve" smooth="yes"/>
      <point x="125" y="417"/>
      <point x="100" y="401"/>
      <point x="100" y="357" type="curve" smooth="yes"/>
      <point x="100" y="314"/>
      <point x="125" y="296"/>
    </contour>
  </outline>
</glyph>
<glyph name="u11AF0" format="2">
  <advance width="316"/>
  <unicode hex="11AF0"/>
  <outline>
    <contour>
      <point x="157" y="132" type="curve" smooth="yes"/>
      <point x="189" y="132"/>
      <point x="216" y="150"/>
      <point x="216" y="193" type="curve" smooth="yes"/>
      <point x="216" y="237"/>
      <point x="189" y="253"/>
      <point x="157" y="253" type="curve" smooth="yes"/>
      <point x="125" y="253"/>
      <point x="100" y="237"/>
      <point x="100" y="193" type="curve" smooth="yes"/>
      <point x="100" y="150"/>
      <point x="125" y="132"/>
    </contour>
    <contour>
      <point x="157" y="450" type="curve" smooth="yes"/>
      <point x="189" y="450"/>
      <point x="216" y="468"/>
      <point x="216" y="511" type="curve" smooth="yes"/>
      <point x="216" y="555"/>
      <point x="189" y="571"/>
      <point x="157" y="571" type="curve" smooth="yes"/>
      <point x="125" y="571"/>
      <point x="100" y="555"/>
      <point x="100" y="511" type="curve" smooth="yes"/>
      <point x="100" y="468"/>
      <point x="125" y="450"/>
    </contour>
  </outline>
</glyph>
<glyph name="u11AF1" format="2">
  <advance width="806"/>
  <unicode hex="11AF1"/>
  <outline>
    <contour>
      <point x="618" y="53" type="line"/>
      <point x="776" y="262" type="line"/>
      <point x="776" y="361" type="line"/>
      <point x="92" y="361" type="line"/>
      <point x="92" y="276" type="line"/>
      <point x="495" y="276" type="line" smooth="yes"/>
      <point x="573" y="276"/>
      <point x="642" y="277"/>
      <point x="688" y="280" type="curve"/>
      <point x="668" y="255"/>
      <point x="641" y="221"/>
      <point x="588" y="154" type="curve" smooth="yes"/>
      <point x="549" y="104" type="line"/>
    </contour>
    <contour>
      <point x="549" y="295" type="line"/>
      <point x="711" y="484" type="line"/>
      <point x="711" y="583" type="line"/>
      <point x="30" y="583" type="line"/>
      <point x="30" y="498" type="line"/>
      <point x="432" y="498" type="line" smooth="yes"/>
      <point x="510" y="498"/>
      <point x="576" y="501"/>
      <point x="622" y="504" type="curve"/>
      <point x="599" y="478"/>
      <point x="576" y="451"/>
      <point x="526" y="392" type="curve" smooth="yes"/>
      <point x="485" y="344" type="line"/>
    </contour>
  </outline>
</glyph>
<glyph name="u11AF2" format="2">
  <advance width="806"/>
  <unicode hex="11AF2"/>
  <outline>
    <contour>
      <point x="475" y="124" type="curve" smooth="yes"/>
      <point x="475" y="156"/>
      <point x="457" y="181"/>
      <point x="414" y="181" type="curve" smooth="yes"/>
      <point x="370" y="181"/>
      <point x="354" y="156"/>
      <point x="354" y="124" type="curve" smooth="yes"/>
      <point x="354" y="92"/>
      <point x="370" y="65"/>
      <point x="414" y="65" type="curve" smooth="yes"/>
      <point x="457" y="65"/>
      <point x="475" y="92"/>
    </contour>
    <component base="u11AF1"/>
  </outline>
</glyph>
<glyph name="u11AF3" format="2">
  <advance width="375"/>
  <unicode hex="11AF3"/>
  <outline>
    <contour>
      <point x="85" y="0" type="line"/>
      <point x="193" y="0" type="line"/>
      <point x="375" y="226" type="line"/>
      <point x="315" y="284" type="line"/>
      <point x="266" y="226" type="line" smooth="yes"/>
      <point x="230" y="184"/>
      <point x="193" y="136"/>
      <point x="169" y="101" type="curve"/>
      <point x="172" y="147"/>
      <point x="175" y="213"/>
      <point x="175" y="291" type="curve" smooth="yes"/>
      <point x="175" y="714" type="line"/>
      <point x="85" y="714" type="line"/>
    </contour>
  </outline>
</glyph>
<glyph name="u11AF4" format="2">
  <advance width="375"/>
  <unicode hex="11AF4"/>
  <outline>
    <contour>
      <point x="85" y="714" type="line"/>
      <point x="85" y="0" type="line"/>
      <point x="198" y="0" type="line"/>
      <point x="375" y="226" type="line"/>
      <point x="312" y="280" type="line"/>
      <point x="267" y="225" type="line"/>
      <point x="216" y="163"/>
      <point x="192" y="129"/>
      <point x="165" y="84" type="curve"/>
      <point x="161" y="86" type="line"/>
      <point x="168" y="135"/>
      <point x="175" y="212"/>
      <point x="175" y="321" type="curve" smooth="yes"/>
      <point x="175" y="714" type="line"/>
    </contour>
    <contour>
      <point x="311" y="544" type="curve" smooth="yes"/>
      <point x="279" y="544"/>
      <point x="254" y="526"/>
      <point x="254" y="483" type="curve" smooth="yes"/>
      <point x="254" y="439"/>
      <point x="279" y="423"/>
      <point x="311" y="423" type="curve" smooth="yes"/>
      <point x="343" y="423"/>
      <point x="370" y="439"/>
      <point x="370" y="483" type="curve" smooth="yes"/>
      <point x="370" y="526"/>
      <point x="343" y="544"/>
    </contour>
  </outline>
</glyph>
<glyph name="u11AF5" format="2">
  <advance width="375"/>
  <unicode hex="11AF5"/>
  <outline>
    <contour>
      <point x="311" y="480" type="curve" smooth="yes"/>
      <point x="279" y="480"/>
      <point x="254" y="462"/>
      <point x="254" y="419" type="curve" smooth="yes"/>
      <point x="254" y="375"/>
      <point x="279" y="359"/>
      <point x="311" y="359" type="curve" smooth="yes"/>
      <point x="343" y="359"/>
      <point x="370" y="375"/>
      <point x="370" y="419" type="curve" smooth="yes"/>
      <point x="370" y="462"/>
      <point x="343" y="480"/>
    </contour>
    <contour>
      <point x="311" y="670" type="curve" smooth="yes"/>
      <point x="279" y="670"/>
      <point x="254" y="652"/>
      <point x="254" y="609" type="curve" smooth="yes"/>
      <point x="254" y="565"/>
      <point x="279" y="549"/>
      <point x="311" y="549" type="curve" smooth="yes"/>
      <point x="343" y="549"/>
      <point x="370" y="565"/>
      <point x="370" y="609" type="curve" smooth="yes"/>
      <point x="370" y="652"/>
      <point x="343" y="670"/>
    </contour>
    <contour>
      <point x="85" y="714" type="line"/>
      <point x="85" y="0" type="line"/>
      <point x="198" y="0" type="line"/>
      <point x="375" y="226" type="line"/>
      <point x="312" y="280" type="line"/>
      <point x="267" y="225" type="line"/>
      <point x="216" y="163"/>
      <point x="192" y="129"/>
      <point x="165" y="84" type="curve"/>
      <point x="161" y="86" type="line"/>
      <point x="168" y="135"/>
      <point x="175" y="212"/>
      <point x="175" y="321" type="curve" smooth="yes"/>
      <point x="175" y="714" type="line"/>
    </contour>
  </outline>
</glyph>
<glyph name="u11AF7" format="2">
  <advance width="702"/>
  <unicode hex="11AF7"/>
  <outline>
    <contour>
      <point x="638" y="544" type="curve" smooth="yes"/>
      <point x="606" y="544"/>
      <point x="581" y="526"/>
      <point x="581" y="483" type="curve" smooth="yes"/>
      <point x="581" y="439"/>
      <point x="606" y="423"/>
      <point x="638" y="423" type="curve" smooth="yes"/>
      <point x="670" y="423"/>
      <point x="697" y="439"/>
      <point x="697" y="483" type="curve" smooth="yes"/>
      <point x="697" y="526"/>
      <point x="670" y="544"/>
    </contour>
    <component base="u11AF6"/>
  </outline>
</glyph>
<glyph name="u11AF8" format="2">
  <advance width="702"/>
  <unicode hex="11AF8"/>
  <outline>
    <contour>
      <point x="638" y="666" type="curve" smooth="yes"/>
      <point x="606" y="666"/>
      <point x="581" y="648"/>
      <point x="581" y="605" type="curve" smooth="yes"/>
      <point x="581" y="561"/>
      <point x="606" y="545"/>
      <point x="638" y="545" type="curve" smooth="yes"/>
      <point x="670" y="545"/>
      <point x="697" y="561"/>
      <point x="697" y="605" type="curve" smooth="yes"/>
      <point x="697" y="648"/>
      <point x="670" y="666"/>
    </contour>
    <contour>
      <point x="638" y="478" type="curve" smooth="yes"/>
      <point x="606" y="478"/>
      <point x="581" y="460"/>
      <point x="581" y="417" type="curve" smooth="yes"/>
      <point x="581" y="373"/>
      <point x="606" y="357"/>
      <point x="638" y="357" type="curve" smooth="yes"/>
      <point x="670" y="357"/>
      <point x="697" y="373"/>
      <point x="697" y="417" type="curve" smooth="yes"/>
      <point x="697" y="460"/>
      <point x="670" y="478"/>
    </contour>
    <component base="u11AF6"/>
  </outline>
</glyph>
